<svg width="38" height="38" viewBox="0 0 38 38" fill="none" xmlns="http://www.w3.org/2000/svg">
<g filter="url(#filter0_dd_1_6)">
<path d="M3 12C3 6.47715 7.47715 2 13 2H25C30.5228 2 35 6.47715 35 12V24C35 29.5228 30.5228 34 25 34H13C7.47715 34 3 29.5228 3 24V12Z" fill="url(#paint0_linear_1_6)" shape-rendering="crispEdges"/>
<g clip-path="url(#clip0_1_6)">
<path d="M23.1667 9.66667L19 13.8333L14.8333 9.66667" stroke="white" stroke-width="1.66667" stroke-linecap="round" stroke-linejoin="round"/>
<path d="M25.6667 13.8333H12.3333C11.4128 13.8333 10.6667 14.5795 10.6667 15.5V24.6667C10.6667 25.5871 11.4128 26.3333 12.3333 26.3333H25.6667C26.5871 26.3333 27.3333 25.5871 27.3333 24.6667V15.5C27.3333 14.5795 26.5871 13.8333 25.6667 13.8333Z" stroke="white" stroke-width="1.66667" stroke-linecap="round" stroke-linejoin="round"/>
</g>
</g>
<defs>
<filter id="filter0_dd_1_6" x="0" y="0" width="38" height="38" filterUnits="userSpaceOnUse" color-interpolation-filters="sRGB">
<feFlood flood-opacity="0" result="BackgroundImageFix"/>
<feColorMatrix in="SourceAlpha" type="matrix" values="0 0 0 0 0 0 0 0 0 0 0 0 0 0 0 0 0 0 127 0" result="hardAlpha"/>
<feMorphology radius="1" operator="erode" in="SourceAlpha" result="effect1_dropShadow_1_6"/>
<feOffset dy="1"/>
<feGaussianBlur stdDeviation="1"/>
<feComposite in2="hardAlpha" operator="out"/>
<feColorMatrix type="matrix" values="0 0 0 0 0 0 0 0 0 0 0 0 0 0 0 0 0 0 0.1 0"/>
<feBlend mode="normal" in2="BackgroundImageFix" result="effect1_dropShadow_1_6"/>
<feColorMatrix in="SourceAlpha" type="matrix" values="0 0 0 0 0 0 0 0 0 0 0 0 0 0 0 0 0 0 127 0" result="hardAlpha"/>
<feOffset dy="1"/>
<feGaussianBlur stdDeviation="1.5"/>
<feComposite in2="hardAlpha" operator="out"/>
<feColorMatrix type="matrix" values="0 0 0 0 0 0 0 0 0 0 0 0 0 0 0 0 0 0 0.1 0"/>
<feBlend mode="normal" in2="effect1_dropShadow_1_6" result="effect2_dropShadow_1_6"/>
<feBlend mode="normal" in="SourceGraphic" in2="effect2_dropShadow_1_6" result="shape"/>
</filter>
<linearGradient id="paint0_linear_1_6" x1="3" y1="2" x2="35" y2="34" gradientUnits="userSpaceOnUse">
<stop stop-color="#FE9A00"/>
<stop offset="1" stop-color="#E17100"/>
</linearGradient>
<clipPath id="clip0_1_6">
<rect width="20" height="20" fill="white" transform="translate(9 8)"/>
</clipPath>
</defs>
</svg>
